<svg xmlns="http://www.w3.org/2000/svg" xmlns:xlink="http://www.w3.org/1999/xlink" viewBox="0 0 325.64 303.96"><defs><style>.cls-1{stroke:#231f20;stroke-linecap:round;stroke-miterlimit:10;stroke-width:0.5px;fill:url(#linear-gradient);}</style><linearGradient id="linear-gradient" x1="0.25" y1="151.98" x2="361.02" y2="151.98" gradientUnits="userSpaceOnUse"><stop offset="0" stop-color="#8a93ff"/><stop offset="1" stop-color="#00ff97" stop-opacity="0"/></linearGradient></defs><title>right</title><g id="Layer_2" data-name="Layer 2"><g id="Layer_1-2" data-name="Layer 1"><path class="cls-1" d="M324,263.5c-1.13-15.76-2.27-31.51-3.12-47.28-1.24-15-2.1-29.95-1.38-45a26.76,26.76,0,0,1,4.88-14.44c-2.31-23.65-4.82-47.27-4.88-71.06a24,24,0,0,1,5.82-15.83C292.43,27.63,239.87.25,180.63.25,81,.25.25,77.71.25,173.26.25,225,24,271.48,61.54,303.18A185.69,185.69,0,0,1,87,300.53a383.32,383.32,0,0,1,40.53.74c8.66.36,17.29,1,25.92,1.81a186,186,0,0,0,26,.29c41.51-3.07,83-12.45,124.43-3.73A176.56,176.56,0,0,0,325,277q0-4.1-.15-8.18A31.91,31.91,0,0,1,324,263.5Z"/></g></g></svg>